<?xml version="1.0" encoding="UTF-8"?>
<svg version="1.1" id="Layer_1" xmlns="http://www.w3.org/2000/svg" xmlns:xlink="http://www.w3.org/1999/xlink" x="0px" y="0px" viewBox="0 0 100 100" style="enable-background:new 0 0 100 100;" xml:space="preserve">
<style type="text/css">
	.st0{fill-rule:evenodd;clip-rule:evenodd;fill:#fff;}
</style>
<g>
	<g>
		<defs>
			<path id="SVGID_1_" d="M52.1,7.3c24.5,0,44.4,19.9,44.4,44.4S76.6,96,52.1,96C27.6,96,7.7,76.2,7.7,51.6S27.6,7.3,52.1,7.3     L52.1,7.3z"/>
		</defs>
		<use xlink:href="#SVGID_1_" style="overflow:visible;fill-rule:evenodd;clip-rule:evenodd;fill:transparent;"/>
		<clipPath id="SVGID_2_">
			<use xlink:href="#SVGID_1_" style="overflow:visible;"/>
		</clipPath>
		<g style="clip-path:url(#SVGID_2_);">
			
				<image style="overflow:visible;" width="1200" height="1200" xlink:href="EFF56763130536E3.jpg" transform="matrix(7.973129e-02 0 0 7.973129e-02 2.1644 2.1237)">
			</image>
		</g>
	</g>
</g>
<path class="st0" d="M50,97.5C23.8,97.5,2.4,76.2,2.4,50C2.4,23.8,23.8,2.5,50,2.5c26.2,0,47.6,21.3,47.6,47.5  C97.6,76.2,76.2,97.5,50,97.5L50,97.5z M90.1,56.5c-1.4-0.4-12.6-3.8-25.3-1.7c5.3,14.6,7.5,26.5,7.9,28.9  C81.8,77.6,88.3,67.8,90.1,56.5L90.1,56.5z M65.9,87.4c-0.6-3.6-3-16-8.7-30.8c-0.1,0-0.2,0.1-0.3,0.1C34,64.7,25.8,80.6,25,82.1  c6.9,5.4,15.6,8.6,25,8.6C55.6,90.7,61,89.5,65.9,87.4L65.9,87.4z M19.8,77.2c0.9-1.6,12.1-20,33-26.8c0.5-0.2,1.1-0.3,1.6-0.5  c-1-2.3-2.1-4.6-3.3-6.9c-20.3,6.1-40,5.8-41.8,5.8c0,0.4,0,0.8,0,1.2C9.3,60.5,13.3,70,19.8,77.2L19.8,77.2z M10.2,41.7  c1.8,0,18.6,0.1,37.6-4.9c-6.7-12-14-22-15.1-23.5C21.3,18.7,12.8,29.1,10.2,41.7L10.2,41.7z M40.5,10.6c1.1,1.5,8.5,11.5,15.2,23.8  C70.1,28.9,76.2,20.7,77,19.7C69.8,13.3,60.3,9.5,50,9.5C46.7,9.5,43.5,9.9,40.5,10.6L40.5,10.6z M81.5,24.4  c-0.9,1.2-7.7,9.9-22.7,16c0.9,1.9,1.9,3.9,2.7,5.9c0.3,0.7,0.6,1.4,0.9,2.1c13.5-1.7,27,1,28.3,1.3C90.6,40.1,87.1,31.3,81.5,24.4  L81.5,24.4z"/>
</svg>