<svg id="Layer_1" data-name="Layer 1" xmlns="http://www.w3.org/2000/svg" viewBox="0 0 42.27 36"><defs><style>.cls-1{fill:#fff;}</style></defs><title>linkedin</title><path class="cls-1" d="M40.27,29.05a.64.64,0,0,0,.65-.67c0-.48-.29-.71-.89-.71h-1v2.5h.36V29.08h.44v0l.69,1.07H41l-.74-1.11Zm-.41-.25h-.42V28H40c.27,0,.58.05.58.41S40.24,28.8,39.86,28.8Z"/><path class="cls-1" d="M39.9,26.55a2.37,2.37,0,1,0,2.37,2.37A2.35,2.35,0,0,0,39.9,26.55Zm0,4.43a2.06,2.06,0,1,1,2-2.06A2,2,0,0,1,39.9,31Z"/><path class="cls-1" d="M33.34,0H2.66A2.63,2.63,0,0,0,0,2.6V33.4A2.63,2.63,0,0,0,2.66,36H33.34A2.63,2.63,0,0,0,36,33.4V2.6A2.63,2.63,0,0,0,33.34,0ZM10.68,30.68H5.33V13.5h5.35ZM8,11.15a3.1,3.1,0,1,1,3.09-3.1A3.1,3.1,0,0,1,8,11.15ZM30.68,30.68H25.34V22.32c0-2,0-4.55-2.78-4.55s-3.2,2.17-3.2,4.41v8.5H14V13.5h5.12v2.34h.07a5.6,5.6,0,0,1,5.05-2.77c5.41,0,6.41,3.56,6.41,8.18Z"/></svg>